<?xml version="1.0" encoding="UTF-8" standalone="no"?>
<!DOCTYPE svg PUBLIC "-//W3C//DTD SVG 1.1//EN" "http://www.w3.org/Graphics/SVG/1.1/DTD/svg11.dtd">
<svg width="100%" height="100%" viewBox="0 0 121 350" version="1.1" xmlns="http://www.w3.org/2000/svg" xmlns:xlink="http://www.w3.org/1999/xlink" xml:space="preserve" xmlns:serif="http://www.serif.com/" style="fill-rule:evenodd;clip-rule:evenodd;stroke-linejoin:round;stroke-miterlimit:2;">
    <g transform="matrix(1,0,0,1,-2200.62,-680)">
        <g transform="matrix(0.999844,0,0,1.1397,-57.0615,0)">
            <g transform="matrix(1.65981,2.39125e-16,8.36937e-16,1.45613,1666.2,267.52)">
                <path d="M420.112,386.974C415.85,381.935 414.279,379.525 416.971,374.266C419.663,369.008 423.029,361.339 416.523,354.108C410.017,346.878 399.921,347.316 392.967,347.316C386.012,347.316 375.917,346.878 369.411,354.108C362.905,361.339 366.27,369.008 368.962,374.266C371.654,379.525 370.084,381.935 365.821,386.974C361.559,392.014 355.95,398.587 356.623,413.048C357.296,427.509 370.981,436.931 392.967,436.931C414.952,436.931 428.637,427.509 429.31,413.048C429.983,398.587 424.375,392.014 420.112,386.974Z" style="fill:rgb(243,205,133);fill-rule:nonzero;"/>
                <path d="M358.621,412.955C357.987,399.332 363.152,393.228 367.301,388.322C371.608,383.23 374.051,379.815 370.742,373.355C367.943,367.886 365.414,361.54 370.898,355.446C375.991,349.785 383.742,349.312 390.609,349.312L392.967,349.316L392.967,347.316C386.012,347.316 375.917,346.878 369.411,354.108C362.905,361.339 366.27,369.008 368.962,374.266C371.654,379.525 370.084,381.935 365.821,386.974C361.559,392.014 355.95,398.587 356.623,413.048C357.296,427.509 370.981,436.931 392.967,436.931L392.967,434.931C372.412,434.931 359.252,426.51 358.621,412.955Z" style="fill:rgb(252,180,87);fill-rule:nonzero;"/>
                <path d="M418.585,388.267C414.326,383.23 411.883,379.815 415.192,373.355C417.991,367.886 420.519,361.539 415.036,355.446C409.943,349.785 402.191,349.312 395.325,349.312L392.967,349.316L392.967,434.931C413.521,434.931 426.681,426.51 427.312,412.955C427.946,399.334 422.783,393.229 418.585,388.267Z" style="fill:rgb(252,180,87);fill-rule:nonzero;"/>
                <path d="M380.803,403.665L380.803,408.025C380.803,408.298 381.027,408.517 381.3,408.523C386.861,408.653 384.894,410.967 389.582,410.967L396.351,410.967C401.04,410.967 399.072,408.653 404.634,408.523C404.907,408.517 405.131,408.298 405.131,408.025L405.131,403.665C405.131,403.388 404.907,403.165 404.631,403.165L381.303,403.165C381.026,403.165 380.803,403.388 380.803,403.665Z" style="fill:rgb(155,78,69);fill-rule:nonzero;"/>
                <path d="M388.354,407.337C387.885,407.337 387.504,407.717 387.504,408.187C387.504,408.656 387.885,409.037 388.354,409.037C388.823,409.037 389.204,408.656 389.204,408.187C389.204,407.717 388.823,407.337 388.354,407.337Z" style="fill:rgb(253,232,225);fill-rule:nonzero;"/>
                <path d="M391.441,407.337C390.972,407.337 390.591,407.717 390.591,408.187C390.591,408.656 390.972,409.037 391.441,409.037C391.911,409.037 392.291,408.656 392.291,408.187C392.291,407.717 391.911,407.337 391.441,407.337Z" style="fill:rgb(253,232,225);fill-rule:nonzero;"/>
                <path d="M394.528,407.337C394.059,407.337 393.678,407.717 393.678,408.187C393.678,408.656 394.059,409.037 394.528,409.037C394.998,409.037 395.378,408.656 395.378,408.187C395.378,407.717 394.998,407.337 394.528,407.337Z" style="fill:rgb(253,232,225);fill-rule:nonzero;"/>
                <path d="M397.615,407.337C397.146,407.337 396.765,407.717 396.765,408.187C396.765,408.656 397.146,409.037 397.615,409.037C398.085,409.037 398.465,408.656 398.465,408.187C398.465,407.717 398.085,407.337 397.615,407.337Z" style="fill:rgb(253,232,225);fill-rule:nonzero;"/>
                <rect x="385.67" y="404.165" width="14.594" height="1.34" style="fill:rgb(253,232,225);fill-rule:nonzero;"/>
                <path d="M402.428,374.146C402.428,379.371 398.192,383.607 392.967,383.607C387.742,383.607 383.506,379.371 383.506,374.146C383.506,368.921 387.742,364.685 392.967,364.685C398.192,364.685 402.428,368.921 402.428,374.146Z" style="fill:rgb(82,0,18);fill-rule:nonzero;"/>
                <path d="M392.967,362.852C386.738,362.852 381.672,367.918 381.672,374.146C381.672,380.375 386.738,385.441 392.967,385.441C399.195,385.441 404.262,380.375 404.262,374.146C404.262,367.918 399.195,362.852 392.967,362.852ZM392.967,387.441C385.636,387.441 379.672,381.478 379.672,374.146C379.672,366.815 385.636,360.852 392.967,360.852C400.298,360.852 406.262,366.815 406.262,374.146C406.262,381.478 400.298,387.441 392.967,387.441ZM392.967,360.01C385.172,360.01 378.83,366.352 378.83,374.146C378.83,381.941 385.172,388.282 392.967,388.282C400.762,388.282 407.103,381.941 407.103,374.146C407.103,366.352 400.762,360.01 392.967,360.01ZM392.967,388.782C384.897,388.782 378.33,382.217 378.33,374.146C378.33,366.076 384.897,359.51 392.967,359.51C401.037,359.51 407.603,366.076 407.603,374.146C407.603,382.217 401.037,388.782 392.967,388.782ZM392.967,364.193C387.48,364.193 383.015,368.658 383.015,374.146C383.015,379.634 387.48,384.099 392.967,384.099C398.454,384.099 402.919,379.634 402.919,374.146C402.919,368.658 398.454,364.193 392.967,364.193ZM392.967,384.599C387.203,384.599 382.515,379.91 382.515,374.146C382.515,368.383 387.203,363.693 392.967,363.693C398.731,363.693 403.419,368.383 403.419,374.146C403.419,379.91 398.731,384.599 392.967,384.599Z" style="fill:rgb(155,78,69);fill-rule:nonzero;"/>
                <path d="M389.336,251.26L387.454,363.352L398.48,363.352L396.598,251.26L389.336,251.26Z" style="fill:rgb(189,100,87);fill-rule:nonzero;"/>
                <path d="M398.078,339.44L387.855,339.44L387.844,340.115L398.09,340.115L398.078,339.44ZM398.441,361.024L387.493,361.024L387.481,361.699L398.452,361.699L398.441,361.024ZM397.949,331.748L387.984,331.748L387.973,332.423L397.96,332.423L397.949,331.748ZM397.874,327.281L388.059,327.281L388.048,327.955L397.885,327.955L397.874,327.281ZM398.013,335.523L387.921,335.523L387.91,336.198L398.024,336.198L398.013,335.523ZM387.793,343.135L387.782,343.809L398.152,343.809L398.14,343.135L387.793,343.135ZM387.74,346.311L387.729,346.986L398.205,346.986L398.194,346.311L387.74,346.311ZM387.634,352.627L387.622,353.302L398.311,353.302L398.3,352.627L387.634,352.627ZM387.536,358.461L387.525,359.135L398.409,359.135L398.398,358.461L387.536,358.461ZM387.689,349.321L387.678,349.995L398.256,349.995L398.244,349.321L387.689,349.321ZM387.581,355.786L387.569,356.46L398.364,356.46L398.353,355.786L387.581,355.786ZM397.124,282.621L388.809,282.621L388.798,283.296L397.136,283.296L397.124,282.621ZM397.002,275.344L388.932,275.344L388.92,276.018L397.013,276.018L397.002,275.344ZM397.236,289.288L388.697,289.288L388.686,289.963L397.247,289.963L397.236,289.288ZM397.797,322.703L388.136,322.703L388.125,323.377L397.809,323.377L397.797,322.703ZM396.874,267.718L389.06,267.718L389.048,268.392L396.885,268.392L396.874,267.718ZM389.186,260.179L389.175,260.854L396.759,260.854L396.747,260.179L389.186,260.179ZM397.342,295.607L388.591,295.607L388.58,296.282L397.354,296.282L397.342,295.607ZM397.715,317.783L388.219,317.783L388.208,318.458L397.726,318.458L397.715,317.783ZM397.629,312.667L388.305,312.667L388.293,313.342L397.64,313.342L397.629,312.667ZM397.546,307.721L388.388,307.721L388.377,308.396L397.557,308.396L397.546,307.721ZM397.46,302.644L388.473,302.644L388.484,301.969L397.449,301.969L397.46,302.644Z" style="fill:rgb(253,232,225);fill-rule:nonzero;"/>
                <path d="M396.617,249.911L389.316,249.911L389.306,251.26L396.627,251.26L396.617,249.911Z" style="fill:rgb(253,232,225);fill-rule:nonzero;"/>
                <rect x="398.746" y="231.685" width="2.429" height="1.295" style="fill:rgb(82,0,18);fill-rule:nonzero;"/>
                <path d="M403.564,232.332C403.564,233.635 402.998,234.77 402.161,235.361C401.606,235.753 400.837,235.311 400.837,234.632L400.837,230.033C400.837,229.354 401.606,228.912 402.161,229.304C402.998,229.895 403.564,231.03 403.564,232.332Z" style="fill:rgb(210,170,136);fill-rule:nonzero;"/>
                <rect x="398.248" y="240.217" width="2.43" height="1.295" style="fill:rgb(82,0,18);fill-rule:nonzero;"/>
                <path d="M403.067,240.865C403.067,242.167 402.501,243.302 401.664,243.893C401.109,244.285 400.339,243.844 400.339,243.164L400.339,238.565C400.339,237.886 401.109,237.444 401.664,237.836C402.501,238.427 403.067,239.562 403.067,240.865Z" style="fill:rgb(210,170,136);fill-rule:nonzero;"/>
                <rect x="384.847" y="231.685" width="2.429" height="1.295" style="fill:rgb(82,0,18);fill-rule:nonzero;"/>
                <path d="M382.458,232.332C382.458,233.635 383.024,234.77 383.861,235.361C384.416,235.753 385.185,235.311 385.185,234.632L385.185,230.033C385.185,229.354 384.416,228.912 383.861,229.304C383.024,229.895 382.458,231.03 382.458,232.332Z" style="fill:rgb(210,170,136);fill-rule:nonzero;"/>
                <rect x="385.344" y="240.217" width="2.43" height="1.295" style="fill:rgb(82,0,18);fill-rule:nonzero;"/>
                <path d="M382.955,240.865C382.955,242.167 383.521,243.302 384.358,243.893C384.913,244.285 385.682,243.844 385.682,243.164L385.682,238.565C385.682,237.886 384.913,237.444 384.358,237.836C383.521,238.427 382.955,239.562 382.955,240.865Z" style="fill:rgb(210,170,136);fill-rule:nonzero;"/>
                <path d="M387.766,226.03C387.001,226.03 386.382,226.644 386.382,227.409C386.379,231.581 386.816,241.269 386.959,244.328C386.985,244.872 387.209,245.38 387.601,245.757C388.286,246.416 389.316,247.764 389.316,249.911L396.617,249.911C396.617,247.796 397.665,246.426 398.35,245.757C398.732,245.383 398.948,244.879 398.973,244.345C399.116,241.304 399.555,231.589 399.552,227.409C399.551,226.644 398.932,226.03 398.167,226.03L387.766,226.03Z" style="fill:rgb(155,78,69);fill-rule:nonzero;"/>
                <path d="M398.167,226.03L392.967,226.03L392.967,249.911L396.617,249.911C396.617,247.796 397.665,246.426 398.35,245.757C398.732,245.383 398.948,244.879 398.973,244.345C399.116,241.304 399.555,231.589 399.552,227.409C399.551,226.644 398.932,226.03 398.167,226.03Z" style="fill:rgb(113,48,43);fill-rule:nonzero;"/>
                <path d="M398.313,232.98C398.313,233.801 397.647,234.467 396.825,234.467C396.003,234.467 395.337,233.801 395.337,232.98C395.337,232.158 396.003,231.492 396.825,231.492C397.647,231.492 398.313,232.158 398.313,232.98Z" style="fill:rgb(253,232,225);fill-rule:nonzero;"/>
                <path d="M397.434,232.98C397.434,233.316 397.162,233.589 396.825,233.589C396.489,233.589 396.216,233.316 396.216,232.98C396.216,232.643 396.489,232.37 396.825,232.37C397.162,232.37 397.434,232.643 397.434,232.98Z" style="fill:rgb(113,48,43);fill-rule:nonzero;"/>
                <path d="M397.816,241.512C397.816,242.334 397.15,243 396.328,243C395.506,243 394.84,242.334 394.84,241.512C394.84,240.69 395.506,240.024 396.328,240.024C397.15,240.024 397.816,240.69 397.816,241.512Z" style="fill:rgb(253,232,225);fill-rule:nonzero;"/>
                <path d="M396.937,241.512C396.937,241.848 396.664,242.121 396.328,242.121C395.991,242.121 395.718,241.848 395.718,241.512C395.718,241.175 395.991,240.903 396.328,240.903C396.664,240.903 396.937,241.175 396.937,241.512Z" style="fill:rgb(113,48,43);fill-rule:nonzero;"/>
                <path d="M387.621,232.98C387.621,233.801 388.287,234.467 389.108,234.467C389.93,234.467 390.596,233.801 390.596,232.98C390.596,232.158 389.93,231.492 389.108,231.492C388.287,231.492 387.621,232.158 387.621,232.98Z" style="fill:rgb(253,232,225);fill-rule:nonzero;"/>
                <path d="M388.499,232.98C388.499,233.316 388.772,233.589 389.108,233.589C389.445,233.589 389.718,233.316 389.718,232.98C389.718,232.643 389.445,232.37 389.108,232.37C388.772,232.37 388.499,232.643 388.499,232.98Z" style="fill:rgb(113,48,43);fill-rule:nonzero;"/>
                <path d="M388.118,241.512C388.118,242.334 388.784,243 389.606,243C390.427,243 391.094,242.334 391.094,241.512C391.094,240.69 390.427,240.024 389.606,240.024C388.784,240.024 388.118,240.69 388.118,241.512Z" style="fill:rgb(253,232,225);fill-rule:nonzero;"/>
                <path d="M388.996,241.512C388.996,241.848 389.269,242.121 389.606,242.121C389.942,242.121 390.215,241.848 390.215,241.512C390.215,241.175 389.942,240.903 389.606,240.903C389.269,240.903 388.996,241.175 388.996,241.512Z" style="fill:rgb(113,48,43);fill-rule:nonzero;"/>
                <path d="M388.729,408.187L387.979,408.187L387.979,404.165L390.045,249.906L389.84,242.287L390.59,242.268L390.795,249.901L388.729,404.17L388.729,408.187Z" style="fill:rgb(253,232,225);fill-rule:nonzero;"/>
                <path d="M391.816,408.187L391.066,408.187L391.066,404.165L391.726,249.919L389.842,233.231L390.588,233.147L392.474,249.879L391.816,404.167L391.816,408.187Z" style="fill:rgb(253,232,225);fill-rule:nonzero;"/>
                <path d="M397.967,408.187L397.217,408.187L397.217,404.165L395.151,249.916L395.344,242.479L396.094,242.499L395.901,249.921L397.967,404.16L397.967,408.187Z" style="fill:rgb(253,232,225);fill-rule:nonzero;"/>
                <path d="M394.88,408.187L394.13,408.187L394.13,404.165L393.471,249.923L395.346,232.703L396.092,232.785L394.219,249.962L394.88,404.163L394.88,408.187Z" style="fill:rgb(253,232,225);fill-rule:nonzero;"/>
            </g>
        </g>
    </g>
</svg>
