<?xml version="1.0" encoding="UTF-8" standalone="no"?>
<!DOCTYPE svg PUBLIC "-//W3C//DTD SVG 1.1//EN" "http://www.w3.org/Graphics/SVG/1.1/DTD/svg11.dtd">
<svg width="100%" height="100%" viewBox="0 0 114 350" version="1.1" xmlns="http://www.w3.org/2000/svg" xmlns:xlink="http://www.w3.org/1999/xlink" xml:space="preserve" xmlns:serif="http://www.serif.com/" style="fill-rule:evenodd;clip-rule:evenodd;stroke-linejoin:round;stroke-miterlimit:2;">
    <g transform="matrix(1,0,0,1,-2397.46,-680)">
        <g transform="matrix(0.999844,0,0,1.1397,-57.0615,0)">
            <g transform="matrix(1.73844,0,-8.36937e-16,1.52511,2120.34,577.345)">
                <path d="M255.839,182.315C251.522,168.689 249.903,166.666 248.823,162.483C247.744,158.301 248.274,155.794 251.265,149.275C254.065,143.172 253.253,137.744 250.441,133.458C247.737,129.337 243.521,132.615 243.386,137.523C243.323,139.819 241.316,143.386 236.408,144.117C230.934,144.933 232.634,134.287 232.095,132.264C231.555,130.24 229.182,130.24 225,130.24C220.818,130.24 218.445,130.24 217.906,132.264C217.366,134.287 215.747,136.311 211.835,135.232C207.922,134.153 206.169,125.653 206.034,123.36C205.899,121.066 201.717,116.345 197.804,123.36C193.892,130.375 197.399,141.707 199.423,148.588C201.447,155.468 202.256,158.301 201.177,162.483C200.098,166.666 198.479,168.689 194.162,182.315C189.845,195.941 194.431,204.035 199.693,208.083C204.954,212.13 209.755,214.019 225,214.019C240.245,214.019 245.046,212.13 250.307,208.083C255.569,204.035 260.156,195.941 255.839,182.315Z" style="fill:rgb(240,74,88);fill-rule:nonzero;"/>
                <path d="M196.068,182.919C198.548,175.091 200.096,171.211 201.227,168.377C202.041,166.338 202.627,164.865 203.114,162.983C204.342,158.224 203.402,155.027 201.342,148.023L201.175,147.458C199.297,141.088 196.153,130.427 199.551,124.334C200.482,122.664 201.496,121.667 202.261,121.667C203.137,121.667 204.007,122.97 204.038,123.477C204.044,123.596 205.224,135.483 211.302,137.16C212.199,137.407 213.054,137.532 213.847,137.532C216.804,137.532 219.044,135.755 219.838,132.779C219.859,132.703 219.876,132.678 219.876,132.677C220.268,132.24 223.003,132.24 225.001,132.24L225,130.24C220.818,130.24 218.445,130.24 217.906,132.264C217.366,134.287 215.747,136.311 211.835,135.232C207.922,134.153 206.169,125.653 206.034,123.36C205.899,121.066 201.717,116.345 197.804,123.36C193.892,130.375 197.399,141.707 199.423,148.588C201.447,155.468 202.256,158.301 201.177,162.483C200.098,166.666 198.479,168.689 194.162,182.315C189.845,195.941 194.431,204.035 199.693,208.083C204.954,212.13 209.755,214.019 225,214.019L225.001,212.019C210.44,212.019 205.974,210.391 200.913,206.498C197.214,203.653 191.667,196.808 196.068,182.919Z" style="fill:rgb(189,35,47);fill-rule:nonzero;"/>
                <path d="M253.932,182.919C251.453,175.093 249.905,171.212 248.774,168.379C247.96,166.339 247.373,164.865 246.887,162.983C245.62,158.077 246.416,155.049 249.448,148.441C251.717,143.493 251.483,138.691 248.769,134.556C248.365,133.939 247.932,133.586 247.584,133.586C246.752,133.586 245.452,135.178 245.385,137.578C245.305,140.494 242.926,145.168 236.703,146.095C236.398,146.141 236.108,146.162 235.833,146.162C230.242,146.162 230.231,138.845 230.226,134.914C230.225,134.132 230.223,133.061 230.162,132.778C230.141,132.703 230.125,132.678 230.125,132.678C229.732,132.24 226.998,132.24 225.001,132.24L225.001,212.019C239.561,212.019 244.027,210.391 249.087,206.498C252.786,203.653 258.333,196.808 253.932,182.919Z" style="fill:rgb(189,35,47);fill-rule:nonzero;"/>
                <path d="M221.615,142.54C217.176,140.713 215.793,139.303 214.097,139.472C212.401,139.642 212.062,141.281 212.458,142.638C212.853,143.995 213.645,146.821 213.927,152.361C214.21,157.901 212.401,160.84 210.253,167.398C208.105,173.955 208.105,178.082 210.818,182.208C213.532,186.335 219.467,184.356 229.925,184.074C240.383,183.791 240.892,184.526 246.997,189.501C253.102,194.475 253.272,188.087 251.979,183.221C249.88,175.322 247.97,171.569 246.845,168.75C246.018,166.675 245.42,165.176 244.919,163.233C243.587,158.071 244.447,154.76 247.538,148.024C249.688,143.339 249.484,138.992 246.933,135.104C246.776,134.864 246.237,134.918 246.063,135.19C245.735,135.703 245.415,136.52 245.385,137.606C245.274,141.627 242.03,147.022 235.85,147.085C230.829,147.136 226.431,144.523 221.615,142.54Z" style="fill:rgb(204,207,227);fill-rule:nonzero;"/>
                <path d="M251.979,183.221C249.88,175.322 247.97,171.569 246.845,168.75C246.018,166.675 245.42,165.176 244.919,163.233C243.587,158.071 244.447,154.76 247.538,148.024C249.688,143.339 249.484,138.992 246.933,135.104C246.776,134.864 246.237,134.918 246.063,135.19C245.735,135.702 245.415,136.52 245.385,137.606C245.274,141.627 242.03,147.022 235.85,147.085C232.026,147.124 228.562,145.617 225,144.02L225,184.327C226.519,184.219 228.152,184.122 229.925,184.074C240.383,183.791 240.892,184.526 246.997,189.501C253.102,194.475 253.271,188.087 251.979,183.221Z" style="fill:rgb(162,175,204);fill-rule:nonzero;"/>
                <path d="M235.958,185.272L234.583,185.272C234.031,185.272 233.583,184.824 233.583,184.272L233.583,182.772C233.583,181.944 232.912,181.272 232.083,181.272L217.917,181.272C217.089,181.272 216.417,181.944 216.417,182.772L216.417,189.02C216.417,189.849 217.089,190.52 217.917,190.52L235.958,190.52C236.787,190.52 237.458,189.849 237.458,189.02L237.458,186.772C237.458,185.944 236.787,185.272 235.958,185.272Z" style="fill:rgb(162,175,204);fill-rule:nonzero;"/>
                <path d="M235.958,185.272L234.583,185.272C234.031,185.272 233.583,184.824 233.583,184.272L233.583,182.772C233.583,181.944 232.912,181.272 232.083,181.272L225,181.272L225,190.52L235.958,190.52C236.787,190.52 237.458,189.849 237.458,189.02L237.458,186.772C237.458,185.944 236.787,185.272 235.958,185.272Z" style="fill:rgb(107,122,156);fill-rule:nonzero;"/>
                <rect x="217.509" y="185.588" width="1.964" height="4.932" style="fill:rgb(155,78,69);fill-rule:nonzero;"/>
                <rect x="220.113" y="185.588" width="1.964" height="4.932" style="fill:rgb(155,78,69);fill-rule:nonzero;"/>
                <rect x="222.716" y="185.588" width="1.964" height="4.932" style="fill:rgb(155,78,69);fill-rule:nonzero;"/>
                <rect x="225.32" y="185.588" width="1.964" height="4.932" style="fill:rgb(113,48,43);fill-rule:nonzero;"/>
                <rect x="227.924" y="185.588" width="1.963" height="4.932" style="fill:rgb(113,48,43);fill-rule:nonzero;"/>
                <rect x="230.527" y="185.588" width="1.964" height="4.932" style="fill:rgb(113,48,43);fill-rule:nonzero;"/>
                <path d="M218.519,182.272L218.463,182.272C217.936,182.272 217.509,182.699 217.509,183.226C217.509,183.753 217.936,184.18 218.463,184.18L218.519,184.18C219.046,184.18 219.473,183.753 219.473,183.226C219.473,182.699 219.046,182.272 218.519,182.272Z" style="fill:rgb(155,78,69);fill-rule:nonzero;"/>
                <path d="M221.123,182.272L221.067,182.272C220.54,182.272 220.113,182.699 220.113,183.226C220.113,183.753 220.54,184.18 221.067,184.18L221.123,184.18C221.65,184.18 222.077,183.753 222.077,183.226C222.077,182.699 221.65,182.272 221.123,182.272Z" style="fill:rgb(155,78,69);fill-rule:nonzero;"/>
                <path d="M223.726,182.272L223.67,182.272C223.144,182.272 222.716,182.699 222.716,183.226C222.716,183.753 223.144,184.18 223.67,184.18L223.726,184.18C224.253,184.18 224.68,183.753 224.68,183.226C224.68,182.699 224.253,182.272 223.726,182.272Z" style="fill:rgb(155,78,69);fill-rule:nonzero;"/>
                <path d="M226.33,182.272L226.274,182.272C225.747,182.272 225.32,182.699 225.32,183.226C225.32,183.753 225.747,184.18 226.274,184.18L226.33,184.18C226.857,184.18 227.284,183.753 227.284,183.226C227.284,182.699 226.857,182.272 226.33,182.272Z" style="fill:rgb(113,48,43);fill-rule:nonzero;"/>
                <path d="M228.934,182.272L228.878,182.272C228.351,182.272 227.924,182.699 227.924,183.226C227.924,183.753 228.351,184.18 228.878,184.18L228.934,184.18C229.46,184.18 229.887,183.753 229.887,183.226C229.887,182.699 229.46,182.272 228.934,182.272Z" style="fill:rgb(113,48,43);fill-rule:nonzero;"/>
                <path d="M231.537,182.272L231.481,182.272C230.954,182.272 230.527,182.699 230.527,183.226C230.527,183.753 230.954,184.18 231.481,184.18L231.537,184.18C232.064,184.18 232.491,183.753 232.491,183.226C232.491,182.699 232.064,182.272 231.537,182.272Z" style="fill:rgb(113,48,43);fill-rule:nonzero;"/>
                <path d="M231.264,173.893L219.61,171.293C218.529,171.052 217.456,171.733 217.215,172.814C216.974,173.895 217.655,174.967 218.736,175.209L230.391,177.809C231.472,178.05 232.544,177.369 232.785,176.288C233.026,175.206 232.345,174.134 231.264,173.893Z" style="fill:rgb(0,0,29);fill-rule:nonzero;"/>
                <path d="M220.107,173.521C220.022,173.926 219.624,174.186 219.219,174.1C218.814,174.015 218.554,173.617 218.64,173.212C218.725,172.807 219.123,172.547 219.528,172.633C219.933,172.718 220.193,173.116 220.107,173.521Z" style="fill:rgb(253,232,225);fill-rule:nonzero;"/>
                <path d="M222.358,173.995C222.273,174.4 221.875,174.659 221.47,174.574C221.064,174.489 220.805,174.091 220.89,173.686C220.976,173.28 221.373,173.021 221.779,173.106C222.184,173.192 222.443,173.589 222.358,173.995Z" style="fill:rgb(253,232,225);fill-rule:nonzero;"/>
                <path d="M224.609,174.468C224.523,174.874 224.126,175.133 223.72,175.048C223.315,174.963 223.056,174.565 223.141,174.16C223.226,173.754 223.624,173.495 224.029,173.58C224.435,173.665 224.694,174.063 224.609,174.468Z" style="fill:rgb(253,232,225);fill-rule:nonzero;"/>
                <path d="M226.859,174.942C226.774,175.348 226.376,175.607 225.971,175.522C225.566,175.436 225.306,175.039 225.392,174.633C225.477,174.228 225.875,173.968 226.28,174.054C226.685,174.139 226.945,174.537 226.859,174.942Z" style="fill:rgb(253,232,225);fill-rule:nonzero;"/>
                <path d="M229.11,175.416C229.025,175.821 228.627,176.081 228.222,175.995C227.816,175.91 227.557,175.512 227.642,175.107C227.728,174.702 228.125,174.442 228.531,174.528C228.936,174.613 229.195,175.011 229.11,175.416Z" style="fill:rgb(253,232,225);fill-rule:nonzero;"/>
                <path d="M231.361,175.89C231.275,176.295 230.878,176.554 230.472,176.469C230.067,176.384 229.808,175.986 229.893,175.581C229.978,175.175 230.376,174.916 230.781,175.001C231.187,175.087 231.446,175.484 231.361,175.89Z" style="fill:rgb(253,232,225);fill-rule:nonzero;"/>
                <path d="M230.992,161.049L219.051,160.922C217.944,160.911 217.036,161.799 217.024,162.907C217.013,164.015 217.901,164.922 219.009,164.934L230.949,165.061C232.057,165.073 232.964,164.184 232.976,163.076C232.988,161.969 232.099,161.061 230.992,161.049Z" style="fill:rgb(0,0,29);fill-rule:nonzero;"/>
                <path d="M220,162.999C220.001,163.413 219.665,163.749 219.251,163.75C218.837,163.75 218.501,163.415 218.5,163.001C218.5,162.587 218.835,162.25 219.249,162.25C219.663,162.249 220,162.584 220,162.999Z" style="fill:rgb(253,232,225);fill-rule:nonzero;"/>
                <path d="M222.3,162.995C222.301,163.41 221.965,163.746 221.551,163.746C221.137,163.747 220.801,163.412 220.8,162.997C220.8,162.583 221.135,162.247 221.549,162.246C221.963,162.246 222.3,162.581 222.3,162.995Z" style="fill:rgb(253,232,225);fill-rule:nonzero;"/>
                <path d="M224.6,162.992C224.601,163.406 224.265,163.743 223.851,163.743C223.437,163.744 223.101,163.408 223.1,162.994C223.1,162.58 223.435,162.244 223.849,162.243C224.263,162.243 224.6,162.578 224.6,162.992Z" style="fill:rgb(253,232,225);fill-rule:nonzero;"/>
                <path d="M226.9,162.989C226.901,163.403 226.565,163.739 226.151,163.74C225.737,163.741 225.401,163.405 225.4,162.991C225.4,162.577 225.735,162.241 226.149,162.24C226.563,162.239 226.9,162.575 226.9,162.989Z" style="fill:rgb(253,232,225);fill-rule:nonzero;"/>
                <path d="M229.2,162.986C229.201,163.4 228.865,163.736 228.451,163.737C228.037,163.737 227.701,163.402 227.7,162.988C227.7,162.574 228.035,162.237 228.449,162.237C228.863,162.236 229.2,162.571 229.2,162.986Z" style="fill:rgb(253,232,225);fill-rule:nonzero;"/>
                <path d="M231.5,162.982C231.501,163.397 231.165,163.733 230.751,163.733C230.337,163.734 230.001,163.399 230,162.984C230,162.57 230.335,162.234 230.749,162.233C231.163,162.233 231.5,162.568 231.5,162.982Z" style="fill:rgb(253,232,225);fill-rule:nonzero;"/>
                <path d="M230.992,149.827L219.051,149.7C217.944,149.688 217.036,150.577 217.024,151.684C217.013,152.792 217.901,153.7 219.009,153.711L230.949,153.838C232.057,153.85 232.964,152.962 232.976,151.854C232.988,150.746 232.099,149.839 230.992,149.827Z" style="fill:rgb(0,0,29);fill-rule:nonzero;"/>
                <path d="M220,151.776C220.001,152.19 219.665,152.527 219.251,152.527C218.837,152.528 218.501,152.193 218.5,151.778C218.5,151.364 218.835,151.028 219.249,151.027C219.663,151.027 220,151.362 220,151.776Z" style="fill:rgb(253,232,225);fill-rule:nonzero;"/>
                <path d="M222.3,151.773C222.301,152.187 221.965,152.523 221.551,152.524C221.137,152.525 220.801,152.189 220.8,151.775C220.8,151.361 221.135,151.025 221.549,151.024C221.963,151.023 222.3,151.359 222.3,151.773Z" style="fill:rgb(253,232,225);fill-rule:nonzero;"/>
                <path d="M224.6,151.77C224.601,152.184 224.265,152.52 223.851,152.521C223.437,152.521 223.101,152.186 223.1,151.772C223.1,151.358 223.435,151.021 223.849,151.021C224.263,151.02 224.6,151.355 224.6,151.77Z" style="fill:rgb(253,232,225);fill-rule:nonzero;"/>
                <path d="M226.9,151.766C226.901,152.181 226.565,152.517 226.151,152.517C225.737,152.518 225.401,152.183 225.4,151.769C225.4,151.354 225.735,151.018 226.149,151.017C226.563,151.017 226.9,151.352 226.9,151.766Z" style="fill:rgb(253,232,225);fill-rule:nonzero;"/>
                <path d="M229.2,151.763C229.201,152.177 228.865,152.514 228.451,152.514C228.037,152.515 227.701,152.18 227.7,151.765C227.7,151.351 228.035,151.015 228.449,151.014C228.863,151.014 229.2,151.349 229.2,151.763Z" style="fill:rgb(253,232,225);fill-rule:nonzero;"/>
                <path d="M231.5,151.76C231.501,152.174 231.165,152.51 230.751,152.511C230.337,152.512 230.001,152.176 230,151.762C230,151.348 230.335,151.012 230.749,151.011C231.163,151.01 231.5,151.346 231.5,151.76Z" style="fill:rgb(253,232,225);fill-rule:nonzero;"/>
                <path d="M244.074,178.914C243.874,180 242.83,180.718 241.744,180.517C240.658,180.317 239.94,179.274 240.141,178.188C240.341,177.101 241.384,176.383 242.47,176.584C243.557,176.784 244.275,177.828 244.074,178.914Z" style="fill:rgb(113,48,43);fill-rule:nonzero;"/>
                <path d="M249.6,184.44C249.399,185.526 248.356,186.244 247.27,186.043C246.184,185.843 245.466,184.8 245.666,183.714C245.867,182.627 246.91,181.909 247.996,182.11C249.082,182.31 249.8,183.354 249.6,184.44Z" style="fill:rgb(113,48,43);fill-rule:nonzero;"/>
                <path d="M243.63,172.945C243.415,173.033 243.17,172.931 243.081,172.716L240.356,166.109C240.268,165.894 240.37,165.648 240.585,165.56C240.799,165.471 241.045,165.574 241.134,165.788L243.858,172.396C243.947,172.61 243.845,172.856 243.63,172.945Z" style="fill:rgb(162,175,204);fill-rule:nonzero;"/>
                <path d="M243.471,169.705C243.221,170.458 242.408,170.865 241.655,170.616C240.902,170.366 240.494,169.553 240.744,168.8C240.994,168.047 241.807,167.639 242.56,167.889C243.313,168.139 243.72,168.952 243.471,169.705Z" style="fill:rgb(113,48,43);fill-rule:nonzero;"/>
                <path d="M229.835,147.283L220.166,147.283C219.326,147.283 218.651,146.594 218.666,145.755L220.407,49.809L229.594,49.809L231.334,145.755C231.35,146.594 230.674,147.283 229.835,147.283Z" style="fill:rgb(189,100,87);fill-rule:nonzero;"/>
                <path d="M219.574,95.715L219.562,96.385L230.439,96.385L230.426,95.715L219.574,95.715ZM219.322,109.601L219.31,110.271L230.691,110.271L230.678,109.601L219.322,109.601ZM219.402,105.168L219.39,105.838L230.61,105.838L230.598,105.168L219.402,105.168ZM219.67,90.401L219.658,91.071L230.342,91.071L230.33,90.401L219.67,90.401ZM219.874,79.17L219.862,79.84L230.138,79.84L230.126,79.17L219.874,79.17ZM220.109,66.224L220.097,66.894L229.904,66.894L229.891,66.224L220.109,66.224ZM220.236,59.207L220.224,59.877L229.776,59.877L229.764,59.207L220.236,59.207ZM219.245,113.828L219.233,114.498L230.767,114.498L230.755,113.828L219.245,113.828ZM219.987,72.947L219.975,73.617L230.026,73.617L230.013,72.947L219.987,72.947ZM219.769,84.97L219.757,85.64L230.244,85.64L230.232,84.97L219.769,84.97ZM219.485,100.617L219.473,101.287L230.528,101.287L230.515,100.617L219.485,100.617ZM218.781,139.431L218.768,140.101L231.232,140.101L231.22,139.431L218.781,139.431ZM218.827,136.877L218.815,137.547L231.186,137.547L231.173,136.877L218.827,136.877ZM218.736,141.868L218.724,142.538L231.276,142.538L231.264,141.868L218.736,141.868ZM218.878,134.088L218.865,134.758L231.135,134.758L231.123,134.088L218.878,134.088ZM231.308,144.275L218.693,144.275L218.681,144.945L231.32,144.945L231.308,144.275ZM219.174,117.735L219.162,118.405L230.838,118.405L230.826,117.735L219.174,117.735ZM219.045,124.869L219.033,125.539L230.968,125.539L230.955,124.869L219.045,124.869ZM219.109,121.346L219.097,122.016L230.904,122.016L230.892,121.346L219.109,121.346ZM218.986,128.099L218.974,128.769L231.026,128.769L231.014,128.099L218.986,128.099ZM231.072,131.299L231.084,131.969L218.916,131.969L218.928,131.299L231.072,131.299Z" style="fill:rgb(253,232,225);fill-rule:nonzero;"/>
                <path d="M220.362,52.298L229.639,52.298L229.614,50.958L220.386,50.958L220.362,52.298Z" style="fill:rgb(253,232,225);fill-rule:nonzero;"/>
                <path d="M219.256,41.064L216.916,40.408L216.567,41.654L218.906,42.311L219.256,41.064Z" style="fill:rgb(113,48,43);fill-rule:nonzero;"/>
                <path d="M214.901,40.514C214.736,41.101 214.961,41.722 215.438,42.191C215.877,42.623 216.683,42.493 216.824,41.991L217.311,40.253C217.452,39.752 216.831,39.222 216.232,39.361C215.58,39.514 215.065,39.928 214.901,40.514Z" style="fill:rgb(210,170,136);fill-rule:nonzero;"/>
                <path d="M220.296,36.084L217.957,35.428L217.607,36.674L219.946,37.331L220.296,36.084Z" style="fill:rgb(113,48,43);fill-rule:nonzero;"/>
                <path d="M215.941,35.534C215.776,36.121 216.001,36.742 216.478,37.211C216.917,37.643 217.723,37.513 217.864,37.011L218.352,35.273C218.492,34.772 217.872,34.242 217.272,34.381C216.621,34.534 216.106,34.948 215.941,35.534Z" style="fill:rgb(210,170,136);fill-rule:nonzero;"/>
                <path d="M221.336,31.104L218.997,30.448L218.647,31.694L220.986,32.351L221.336,31.104Z" style="fill:rgb(113,48,43);fill-rule:nonzero;"/>
                <path d="M216.981,30.554C216.817,31.141 217.041,31.762 217.518,32.231C217.957,32.663 218.763,32.533 218.904,32.031L219.392,30.293C219.533,29.792 218.912,29.262 218.312,29.401C217.661,29.554 217.146,29.968 216.981,30.554Z" style="fill:rgb(210,170,136);fill-rule:nonzero;"/>
                <path d="M222.376,26.124L220.037,25.468L219.687,26.714L222.026,27.371L222.376,26.124Z" style="fill:rgb(113,48,43);fill-rule:nonzero;"/>
                <path d="M218.021,25.574C217.857,26.161 218.081,26.782 218.558,27.251C218.997,27.683 219.803,27.553 219.944,27.051L220.432,25.313C220.573,24.812 219.952,24.281 219.353,24.421C218.701,24.573 218.186,24.988 218.021,25.574Z" style="fill:rgb(210,170,136);fill-rule:nonzero;"/>
                <path d="M223.416,21.144L221.077,20.488L220.727,21.734L223.067,22.39L223.416,21.144Z" style="fill:rgb(113,48,43);fill-rule:nonzero;"/>
                <path d="M219.062,20.594C218.897,21.181 219.121,21.802 219.599,22.271C220.038,22.703 220.844,22.573 220.984,22.071L221.472,20.333C221.613,19.832 220.992,19.301 220.393,19.441C219.741,19.593 219.226,20.008 219.062,20.594Z" style="fill:rgb(210,170,136);fill-rule:nonzero;"/>
                <path d="M224.457,16.164L222.117,15.508L221.768,16.754L224.107,17.41L224.457,16.164Z" style="fill:rgb(113,48,43);fill-rule:nonzero;"/>
                <path d="M220.102,15.614C219.937,16.201 220.162,16.822 220.639,17.291C221.078,17.723 221.884,17.593 222.025,17.091L222.512,15.353C222.653,14.852 222.032,14.321 221.433,14.461C220.781,14.613 220.266,15.028 220.102,15.614Z" style="fill:rgb(210,170,136);fill-rule:nonzero;"/>
                <path d="M228.397,23.61C229.507,21.715 232.419,23.24 233.76,19.357C235.101,15.473 233.02,13.67 230.471,12.931C227.922,12.191 224.699,12.7 223.358,17.646C222.017,22.593 218.689,38.774 218.042,42.01C217.394,45.246 217.718,45.662 218.735,46.217C219.752,46.772 220.407,48.205 220.407,49.809L229.594,49.809C229.594,43.785 231.087,42.333 231.873,41.594C232.658,40.854 233.583,40.946 233.491,40.114C233.398,39.282 232.936,36.971 230.902,31.885C228.868,26.8 227.288,25.505 228.397,23.61Z" style="fill:rgb(252,180,87);fill-rule:nonzero;"/>
                <path d="M230.902,31.885C229.376,28.071 228.106,26.39 228.034,24.988L225,49.809L229.594,49.809C229.594,43.785 231.087,42.333 231.873,41.594C232.658,40.854 233.583,40.946 233.491,40.114C233.398,39.282 232.936,36.971 230.902,31.885Z" style="fill:rgb(216,142,60);fill-rule:nonzero;"/>
                <path d="M221.981,42.68C222.05,43.499 221.442,44.219 220.624,44.288C219.805,44.357 219.085,43.749 219.016,42.93C218.947,42.112 219.555,41.392 220.373,41.323C221.192,41.254 221.912,41.862 221.981,42.68Z" style="fill:rgb(253,232,225);fill-rule:nonzero;"/>
                <path d="M221.104,42.737C221.132,43.072 220.884,43.367 220.548,43.395C220.213,43.423 219.918,43.174 219.89,42.839C219.862,42.504 220.11,42.209 220.446,42.181C220.781,42.152 221.076,42.401 221.104,42.737Z" style="fill:rgb(113,48,43);fill-rule:nonzero;"/>
                <path d="M223.099,37.694C223.168,38.513 222.561,39.232 221.742,39.301C220.923,39.37 220.203,38.763 220.134,37.944C220.065,37.125 220.673,36.405 221.492,36.336C222.311,36.267 223.03,36.875 223.099,37.694Z" style="fill:rgb(253,232,225);fill-rule:nonzero;"/>
                <path d="M222.222,37.75C222.251,38.085 222.002,38.38 221.666,38.408C221.331,38.437 221.036,38.188 221.008,37.852C220.98,37.517 221.229,37.222 221.564,37.194C221.899,37.166 222.194,37.415 222.222,37.75Z" style="fill:rgb(113,48,43);fill-rule:nonzero;"/>
                <path d="M224.218,32.707C224.287,33.526 223.679,34.246 222.86,34.315C222.041,34.384 221.321,33.776 221.252,32.957C221.183,32.138 221.791,31.419 222.61,31.35C223.429,31.28 224.148,31.888 224.218,32.707Z" style="fill:rgb(253,232,225);fill-rule:nonzero;"/>
                <path d="M223.341,32.763C223.369,33.099 223.12,33.394 222.785,33.422C222.449,33.45 222.155,33.201 222.126,32.866C222.098,32.531 222.347,32.236 222.682,32.208C223.018,32.179 223.312,32.428 223.341,32.763Z" style="fill:rgb(113,48,43);fill-rule:nonzero;"/>
                <path d="M225.336,27.72C225.405,28.539 224.797,29.259 223.978,29.328C223.159,29.397 222.44,28.789 222.371,27.971C222.302,27.152 222.909,26.432 223.728,26.363C224.547,26.294 225.267,26.902 225.336,27.72Z" style="fill:rgb(253,232,225);fill-rule:nonzero;"/>
                <path d="M224.459,27.777C224.487,28.112 224.238,28.407 223.903,28.435C223.568,28.464 223.273,28.215 223.245,27.879C223.216,27.544 223.465,27.249 223.801,27.221C224.136,27.193 224.431,27.442 224.459,27.777Z" style="fill:rgb(113,48,43);fill-rule:nonzero;"/>
                <path d="M226.454,22.734C226.523,23.553 225.915,24.272 225.096,24.342C224.278,24.411 223.558,23.803 223.489,22.984C223.42,22.165 224.028,21.445 224.846,21.376C225.665,21.307 226.385,21.915 226.454,22.734Z" style="fill:rgb(253,232,225);fill-rule:nonzero;"/>
                <path d="M225.577,22.79C225.605,23.126 225.356,23.42 225.021,23.449C224.686,23.477 224.391,23.228 224.363,22.893C224.334,22.557 224.583,22.263 224.919,22.234C225.254,22.206 225.549,22.455 225.577,22.79Z" style="fill:rgb(113,48,43);fill-rule:nonzero;"/>
                <path d="M227.572,17.747C227.641,18.566 227.033,19.286 226.215,19.355C225.396,19.424 224.676,18.816 224.607,17.997C224.538,17.179 225.146,16.459 225.965,16.39C226.783,16.321 227.503,16.928 227.572,17.747Z" style="fill:rgb(253,232,225);fill-rule:nonzero;"/>
                <path d="M226.695,17.804C226.724,18.139 226.475,18.434 226.139,18.462C225.804,18.49 225.509,18.241 225.481,17.906C225.453,17.571 225.702,17.276 226.037,17.248C226.372,17.219 226.667,17.468 226.695,17.804Z" style="fill:rgb(113,48,43);fill-rule:nonzero;"/>
                <path d="M235.049,188.808C234.918,188.831 234.778,188.802 234.663,188.717C234.442,188.551 234.397,188.238 234.562,188.016C234.951,187.497 234.994,187.29 235.444,184.726C235.612,183.767 235.835,182.493 236.156,180.771L236.325,179.868C237.325,174.501 237.453,173.811 237.468,173.182C237.485,172.498 237.274,168.135 237.229,167.323C237.213,167.048 237.42,166.812 237.7,166.796C237.975,166.78 238.211,166.991 238.227,167.267C238.268,167.986 238.485,172.463 238.468,173.206C238.451,173.915 238.343,174.496 237.308,180.051L237.139,180.955C236.819,182.672 236.596,183.942 236.428,184.899C235.964,187.551 235.903,187.892 235.363,188.615C235.284,188.722 235.17,188.787 235.049,188.808Z" style="fill:rgb(81,75,83);fill-rule:nonzero;"/>
                <path d="M237.653,160.358C237.28,160.367 236.663,162.49 236.754,165.218C236.845,167.945 237.22,168.029 237.833,168.015C238.445,168.001 238.816,167.899 238.779,165.17C238.741,162.442 238.025,160.349 237.653,160.358Z" style="fill:rgb(253,232,225);fill-rule:nonzero;"/>
                <path d="M218.491,188.179C218.422,188.179 218.366,188.123 218.366,188.054L218.366,185.587L220.845,51.625L221.367,42.798C221.371,42.729 221.43,42.671 221.5,42.68C221.568,42.685 221.621,42.744 221.617,42.812L221.095,51.635L218.616,185.59L218.616,188.054C218.616,188.123 218.56,188.179 218.491,188.179Z" style="fill:rgb(253,232,225);fill-rule:nonzero;"/>
                <path d="M221.095,188.179C221.026,188.179 220.97,188.123 220.97,188.054L220.97,185.587L222.457,51.626L222.457,37.819C222.457,37.75 222.513,37.694 222.582,37.694C222.651,37.694 222.707,37.75 222.707,37.819L222.707,51.628L221.22,185.589L221.22,188.054C221.22,188.123 221.164,188.179 221.095,188.179Z" style="fill:rgb(253,232,225);fill-rule:nonzero;"/>
                <path d="M223.698,188.179C223.629,188.179 223.573,188.123 223.573,188.054L223.573,185.587L224.069,51.627L223.573,32.835C223.571,32.766 223.626,32.709 223.695,32.707L223.698,32.707C223.766,32.707 223.821,32.761 223.823,32.829L224.319,51.624L223.823,185.588L223.823,188.054C223.823,188.123 223.767,188.179 223.698,188.179Z" style="fill:rgb(253,232,225);fill-rule:nonzero;"/>
                <path d="M231.509,188.179C231.439,188.179 231.384,188.123 231.384,188.054L231.384,185.587L228.905,51.63L226.887,17.862C226.883,17.793 226.936,17.734 227.004,17.73L227.012,17.73C227.077,17.73 227.133,17.781 227.137,17.848L229.155,51.621L231.634,185.585L231.634,188.054C231.634,188.123 231.578,188.179 231.509,188.179Z" style="fill:rgb(253,232,225);fill-rule:nonzero;"/>
                <path d="M228.905,188.179C228.836,188.179 228.78,188.123 228.78,188.054L228.78,185.587L227.294,51.629L225.818,22.865C225.815,22.796 225.868,22.738 225.937,22.734C226,22.733 226.064,22.784 226.068,22.853L227.544,51.622L229.03,185.586L229.03,188.054C229.03,188.123 228.975,188.179 228.905,188.179Z" style="fill:rgb(253,232,225);fill-rule:nonzero;"/>
                <path d="M226.302,188.179C226.232,188.179 226.177,188.123 226.177,188.054L226.177,185.587L225.681,51.628L224.642,27.851C224.639,27.782 224.693,27.724 224.762,27.721C224.837,27.724 224.889,27.771 224.892,27.84L225.931,51.623L226.427,185.587L226.427,188.054C226.427,188.123 226.371,188.179 226.302,188.179Z" style="fill:rgb(253,232,225);fill-rule:nonzero;"/>
            </g>
        </g>
    </g>
</svg>
